<mxfile host="app.diagrams.net" modified="2023-03-11T21:37:19.867Z" agent="5.0 (Windows NT 10.0; Win64; x64) AppleWebKit/537.36 (KHTML, like Gecko) Chrome/110.0.0.0 Safari/537.36" etag="zCyV1h5UZuHudUxLNWky" version="21.0.2" type="github">
  <diagram name="Page-1" id="RvkjJsLYA3RFUO9NYqUR">
    <mxGraphModel dx="1900" dy="573" grid="1" gridSize="10" guides="1" tooltips="1" connect="1" arrows="1" fold="1" page="1" pageScale="1" pageWidth="850" pageHeight="1100" math="0" shadow="0">
      <root>
        <mxCell id="0" />
        <mxCell id="1" parent="0" />
        <object label="Customer" id="U8XN_XWJw1uIWbOrhST0-1">
          <mxCell style="shape=table;startSize=17;container=1;collapsible=1;childLayout=tableLayout;fixedRows=1;rowLines=0;fontStyle=1;align=center;resizeLast=1;html=1;fillColor=#ffcd28;gradientColor=#ffa500;strokeColor=#d79b00;rounded=1;" vertex="1" parent="1">
            <mxGeometry x="-145" y="8" width="210" height="257.7500762939453" as="geometry" />
          </mxCell>
        </object>
        <mxCell id="U8XN_XWJw1uIWbOrhST0-2" value="" style="shape=tableRow;horizontal=0;startSize=0;swimlaneHead=0;swimlaneBody=0;fillColor=none;collapsible=0;dropTarget=0;points=[[0,0.5],[1,0.5]];portConstraint=eastwest;top=0;left=0;right=0;bottom=1;" vertex="1" parent="U8XN_XWJw1uIWbOrhST0-1">
          <mxGeometry y="17" width="210" height="29" as="geometry" />
        </mxCell>
        <mxCell id="U8XN_XWJw1uIWbOrhST0-3" value="PK" style="shape=partialRectangle;connectable=0;fillColor=none;top=0;left=0;bottom=0;right=0;fontStyle=1;overflow=hidden;whiteSpace=wrap;html=1;" vertex="1" parent="U8XN_XWJw1uIWbOrhST0-2">
          <mxGeometry width="30" height="29" as="geometry">
            <mxRectangle width="30" height="29" as="alternateBounds" />
          </mxGeometry>
        </mxCell>
        <mxCell id="U8XN_XWJw1uIWbOrhST0-4" value="Customer_ID: NVARCHAR(40)" style="shape=partialRectangle;connectable=0;fillColor=none;top=0;left=0;bottom=0;right=0;align=left;spacingLeft=6;fontStyle=5;overflow=hidden;whiteSpace=wrap;html=1;" vertex="1" parent="U8XN_XWJw1uIWbOrhST0-2">
          <mxGeometry x="30" width="180" height="29" as="geometry">
            <mxRectangle width="180" height="29" as="alternateBounds" />
          </mxGeometry>
        </mxCell>
        <mxCell id="U8XN_XWJw1uIWbOrhST0-5" value="" style="shape=tableRow;horizontal=0;startSize=0;swimlaneHead=0;swimlaneBody=0;fillColor=none;collapsible=0;dropTarget=0;points=[[0,0.5],[1,0.5]];portConstraint=eastwest;top=0;left=0;right=0;bottom=0;" vertex="1" parent="U8XN_XWJw1uIWbOrhST0-1">
          <mxGeometry y="46" width="210" height="26" as="geometry" />
        </mxCell>
        <mxCell id="U8XN_XWJw1uIWbOrhST0-6" value="" style="shape=partialRectangle;connectable=0;fillColor=none;top=0;left=0;bottom=0;right=0;editable=1;overflow=hidden;whiteSpace=wrap;html=1;" vertex="1" parent="U8XN_XWJw1uIWbOrhST0-5">
          <mxGeometry width="30" height="26" as="geometry">
            <mxRectangle width="30" height="26" as="alternateBounds" />
          </mxGeometry>
        </mxCell>
        <mxCell id="U8XN_XWJw1uIWbOrhST0-7" value="FirstName: VARCHAR(40)" style="shape=partialRectangle;connectable=0;fillColor=none;top=0;left=0;bottom=0;right=0;align=left;spacingLeft=6;overflow=hidden;whiteSpace=wrap;html=1;fontStyle=1" vertex="1" parent="U8XN_XWJw1uIWbOrhST0-5">
          <mxGeometry x="30" width="180" height="26" as="geometry">
            <mxRectangle width="180" height="26" as="alternateBounds" />
          </mxGeometry>
        </mxCell>
        <mxCell id="U8XN_XWJw1uIWbOrhST0-8" value="" style="shape=tableRow;horizontal=0;startSize=0;swimlaneHead=0;swimlaneBody=0;fillColor=none;collapsible=0;dropTarget=0;points=[[0,0.5],[1,0.5]];portConstraint=eastwest;top=0;left=0;right=0;bottom=0;" vertex="1" parent="U8XN_XWJw1uIWbOrhST0-1">
          <mxGeometry y="72" width="210" height="20" as="geometry" />
        </mxCell>
        <mxCell id="U8XN_XWJw1uIWbOrhST0-9" value="" style="shape=partialRectangle;connectable=0;fillColor=none;top=0;left=0;bottom=0;right=0;editable=1;overflow=hidden;whiteSpace=wrap;html=1;" vertex="1" parent="U8XN_XWJw1uIWbOrhST0-8">
          <mxGeometry width="30" height="20" as="geometry">
            <mxRectangle width="30" height="20" as="alternateBounds" />
          </mxGeometry>
        </mxCell>
        <mxCell id="U8XN_XWJw1uIWbOrhST0-10" value="LastName: VARCHAR(40)" style="shape=partialRectangle;connectable=0;fillColor=none;top=0;left=0;bottom=0;right=0;align=left;spacingLeft=6;overflow=hidden;whiteSpace=wrap;html=1;fontStyle=1" vertex="1" parent="U8XN_XWJw1uIWbOrhST0-8">
          <mxGeometry x="30" width="180" height="20" as="geometry">
            <mxRectangle width="180" height="20" as="alternateBounds" />
          </mxGeometry>
        </mxCell>
        <mxCell id="U8XN_XWJw1uIWbOrhST0-11" value="" style="shape=tableRow;horizontal=0;startSize=0;swimlaneHead=0;swimlaneBody=0;fillColor=none;collapsible=0;dropTarget=0;points=[[0,0.5],[1,0.5]];portConstraint=eastwest;top=0;left=0;right=0;bottom=0;" vertex="1" parent="U8XN_XWJw1uIWbOrhST0-1">
          <mxGeometry y="92" width="210" height="22" as="geometry" />
        </mxCell>
        <mxCell id="U8XN_XWJw1uIWbOrhST0-12" value="" style="shape=partialRectangle;connectable=0;fillColor=none;top=0;left=0;bottom=0;right=0;editable=1;overflow=hidden;whiteSpace=wrap;html=1;" vertex="1" parent="U8XN_XWJw1uIWbOrhST0-11">
          <mxGeometry width="30" height="22" as="geometry">
            <mxRectangle width="30" height="22" as="alternateBounds" />
          </mxGeometry>
        </mxCell>
        <mxCell id="U8XN_XWJw1uIWbOrhST0-13" value="Street: VARCHAR(50)" style="shape=partialRectangle;connectable=0;fillColor=none;top=0;left=0;bottom=0;right=0;align=left;spacingLeft=6;overflow=hidden;whiteSpace=wrap;html=1;fontStyle=1" vertex="1" parent="U8XN_XWJw1uIWbOrhST0-11">
          <mxGeometry x="30" width="180" height="22" as="geometry">
            <mxRectangle width="180" height="22" as="alternateBounds" />
          </mxGeometry>
        </mxCell>
        <mxCell id="U8XN_XWJw1uIWbOrhST0-14" value="" style="shape=tableRow;horizontal=0;startSize=0;swimlaneHead=0;swimlaneBody=0;fillColor=none;collapsible=0;dropTarget=0;points=[[0,0.5],[1,0.5]];portConstraint=eastwest;top=0;left=0;right=0;bottom=0;" vertex="1" parent="U8XN_XWJw1uIWbOrhST0-1">
          <mxGeometry y="114" width="210" height="20" as="geometry" />
        </mxCell>
        <mxCell id="U8XN_XWJw1uIWbOrhST0-15" value="" style="shape=partialRectangle;connectable=0;fillColor=none;top=0;left=0;bottom=0;right=0;editable=1;overflow=hidden;whiteSpace=wrap;html=1;" vertex="1" parent="U8XN_XWJw1uIWbOrhST0-14">
          <mxGeometry width="30" height="20" as="geometry">
            <mxRectangle width="30" height="20" as="alternateBounds" />
          </mxGeometry>
        </mxCell>
        <mxCell id="U8XN_XWJw1uIWbOrhST0-16" value="City: VARCHAR(50)" style="shape=partialRectangle;connectable=0;fillColor=none;top=0;left=0;bottom=0;right=0;align=left;spacingLeft=6;overflow=hidden;whiteSpace=wrap;html=1;fontStyle=1" vertex="1" parent="U8XN_XWJw1uIWbOrhST0-14">
          <mxGeometry x="30" width="180" height="20" as="geometry">
            <mxRectangle width="180" height="20" as="alternateBounds" />
          </mxGeometry>
        </mxCell>
        <mxCell id="U8XN_XWJw1uIWbOrhST0-17" value="" style="shape=tableRow;horizontal=0;startSize=0;swimlaneHead=0;swimlaneBody=0;fillColor=none;collapsible=0;dropTarget=0;points=[[0,0.5],[1,0.5]];portConstraint=eastwest;top=0;left=0;right=0;bottom=0;" vertex="1" parent="U8XN_XWJw1uIWbOrhST0-1">
          <mxGeometry y="134" width="210" height="24" as="geometry" />
        </mxCell>
        <mxCell id="U8XN_XWJw1uIWbOrhST0-18" value="" style="shape=partialRectangle;connectable=0;fillColor=none;top=0;left=0;bottom=0;right=0;editable=1;overflow=hidden;whiteSpace=wrap;html=1;" vertex="1" parent="U8XN_XWJw1uIWbOrhST0-17">
          <mxGeometry width="30" height="24" as="geometry">
            <mxRectangle width="30" height="24" as="alternateBounds" />
          </mxGeometry>
        </mxCell>
        <mxCell id="U8XN_XWJw1uIWbOrhST0-19" value="Country: VARCHAR(40)" style="shape=partialRectangle;connectable=0;fillColor=none;top=0;left=0;bottom=0;right=0;align=left;spacingLeft=6;overflow=hidden;whiteSpace=wrap;html=1;fontStyle=1" vertex="1" parent="U8XN_XWJw1uIWbOrhST0-17">
          <mxGeometry x="30" width="180" height="24" as="geometry">
            <mxRectangle width="180" height="24" as="alternateBounds" />
          </mxGeometry>
        </mxCell>
        <mxCell id="U8XN_XWJw1uIWbOrhST0-20" value="" style="shape=tableRow;horizontal=0;startSize=0;swimlaneHead=0;swimlaneBody=0;fillColor=none;collapsible=0;dropTarget=0;points=[[0,0.5],[1,0.5]];portConstraint=eastwest;top=0;left=0;right=0;bottom=0;" vertex="1" parent="U8XN_XWJw1uIWbOrhST0-1">
          <mxGeometry y="158" width="210" height="20" as="geometry" />
        </mxCell>
        <mxCell id="U8XN_XWJw1uIWbOrhST0-21" value="" style="shape=partialRectangle;connectable=0;fillColor=none;top=0;left=0;bottom=0;right=0;editable=1;overflow=hidden;whiteSpace=wrap;html=1;" vertex="1" parent="U8XN_XWJw1uIWbOrhST0-20">
          <mxGeometry width="30" height="20" as="geometry">
            <mxRectangle width="30" height="20" as="alternateBounds" />
          </mxGeometry>
        </mxCell>
        <mxCell id="U8XN_XWJw1uIWbOrhST0-22" value="ZipcCode: INTEGER" style="shape=partialRectangle;connectable=0;fillColor=none;top=0;left=0;bottom=0;right=0;align=left;spacingLeft=6;overflow=hidden;whiteSpace=wrap;html=1;fontStyle=1" vertex="1" parent="U8XN_XWJw1uIWbOrhST0-20">
          <mxGeometry x="30" width="180" height="20" as="geometry">
            <mxRectangle width="180" height="20" as="alternateBounds" />
          </mxGeometry>
        </mxCell>
        <mxCell id="U8XN_XWJw1uIWbOrhST0-23" value="" style="shape=tableRow;horizontal=0;startSize=0;swimlaneHead=0;swimlaneBody=0;fillColor=none;collapsible=0;dropTarget=0;points=[[0,0.5],[1,0.5]];portConstraint=eastwest;top=0;left=0;right=0;bottom=0;" vertex="1" parent="U8XN_XWJw1uIWbOrhST0-1">
          <mxGeometry y="178" width="210" height="20" as="geometry" />
        </mxCell>
        <mxCell id="U8XN_XWJw1uIWbOrhST0-24" value="" style="shape=partialRectangle;connectable=0;fillColor=none;top=0;left=0;bottom=0;right=0;editable=1;overflow=hidden;whiteSpace=wrap;html=1;" vertex="1" parent="U8XN_XWJw1uIWbOrhST0-23">
          <mxGeometry width="30" height="20" as="geometry">
            <mxRectangle width="30" height="20" as="alternateBounds" />
          </mxGeometry>
        </mxCell>
        <mxCell id="U8XN_XWJw1uIWbOrhST0-25" value="PhoneNumber: INTEGER" style="shape=partialRectangle;connectable=0;fillColor=none;top=0;left=0;bottom=0;right=0;align=left;spacingLeft=6;overflow=hidden;whiteSpace=wrap;html=1;fontStyle=1" vertex="1" parent="U8XN_XWJw1uIWbOrhST0-23">
          <mxGeometry x="30" width="180" height="20" as="geometry">
            <mxRectangle width="180" height="20" as="alternateBounds" />
          </mxGeometry>
        </mxCell>
        <mxCell id="U8XN_XWJw1uIWbOrhST0-26" value="" style="shape=tableRow;horizontal=0;startSize=0;swimlaneHead=0;swimlaneBody=0;fillColor=none;collapsible=0;dropTarget=0;points=[[0,0.5],[1,0.5]];portConstraint=eastwest;top=0;left=0;right=0;bottom=0;" vertex="1" parent="U8XN_XWJw1uIWbOrhST0-1">
          <mxGeometry y="198" width="210" height="23" as="geometry" />
        </mxCell>
        <mxCell id="U8XN_XWJw1uIWbOrhST0-27" value="" style="shape=partialRectangle;connectable=0;fillColor=none;top=0;left=0;bottom=0;right=0;editable=1;overflow=hidden;whiteSpace=wrap;html=1;" vertex="1" parent="U8XN_XWJw1uIWbOrhST0-26">
          <mxGeometry width="30" height="23" as="geometry">
            <mxRectangle width="30" height="23" as="alternateBounds" />
          </mxGeometry>
        </mxCell>
        <mxCell id="U8XN_XWJw1uIWbOrhST0-28" value="Email: NVARCHAR(40)" style="shape=partialRectangle;connectable=0;fillColor=none;top=0;left=0;bottom=0;right=0;align=left;spacingLeft=6;overflow=hidden;whiteSpace=wrap;html=1;fontStyle=1" vertex="1" parent="U8XN_XWJw1uIWbOrhST0-26">
          <mxGeometry x="30" width="180" height="23" as="geometry">
            <mxRectangle width="180" height="23" as="alternateBounds" />
          </mxGeometry>
        </mxCell>
        <mxCell id="U8XN_XWJw1uIWbOrhST0-29" value="" style="shape=tableRow;horizontal=0;startSize=0;swimlaneHead=0;swimlaneBody=0;fillColor=none;collapsible=0;dropTarget=0;points=[[0,0.5],[1,0.5]];portConstraint=eastwest;top=0;left=0;right=0;bottom=0;" vertex="1" parent="U8XN_XWJw1uIWbOrhST0-1">
          <mxGeometry y="221" width="210" height="25" as="geometry" />
        </mxCell>
        <mxCell id="U8XN_XWJw1uIWbOrhST0-30" value="" style="shape=partialRectangle;connectable=0;fillColor=none;top=0;left=0;bottom=0;right=0;editable=1;overflow=hidden;whiteSpace=wrap;html=1;" vertex="1" parent="U8XN_XWJw1uIWbOrhST0-29">
          <mxGeometry width="30" height="25" as="geometry">
            <mxRectangle width="30" height="25" as="alternateBounds" />
          </mxGeometry>
        </mxCell>
        <mxCell id="U8XN_XWJw1uIWbOrhST0-31" value="WalletNumber: INTEGER" style="shape=partialRectangle;connectable=0;fillColor=none;top=0;left=0;bottom=0;right=0;align=left;spacingLeft=6;overflow=hidden;whiteSpace=wrap;html=1;fontStyle=1" vertex="1" parent="U8XN_XWJw1uIWbOrhST0-29">
          <mxGeometry x="30" width="180" height="25" as="geometry">
            <mxRectangle width="180" height="25" as="alternateBounds" />
          </mxGeometry>
        </mxCell>
        <mxCell id="U8XN_XWJw1uIWbOrhST0-35" value="Services" style="shape=table;startSize=31;container=1;collapsible=1;childLayout=tableLayout;fixedRows=1;rowLines=0;fontStyle=1;align=center;resizeLast=1;html=1;fillColor=#b1ddf0;strokeColor=#10739e;rounded=1;" vertex="1" parent="1">
          <mxGeometry x="490" y="7.999999999999986" width="232" height="182.3001708984375" as="geometry" />
        </mxCell>
        <mxCell id="U8XN_XWJw1uIWbOrhST0-36" value="" style="shape=tableRow;horizontal=0;startSize=0;swimlaneHead=0;swimlaneBody=0;fillColor=none;collapsible=0;dropTarget=0;points=[[0,0.5],[1,0.5]];portConstraint=eastwest;top=0;left=0;right=0;bottom=1;" vertex="1" parent="U8XN_XWJw1uIWbOrhST0-35">
          <mxGeometry y="31" width="232" height="45" as="geometry" />
        </mxCell>
        <mxCell id="U8XN_XWJw1uIWbOrhST0-37" value="PK" style="shape=partialRectangle;connectable=0;fillColor=none;top=0;left=0;bottom=0;right=0;fontStyle=1;overflow=hidden;whiteSpace=wrap;html=1;" vertex="1" parent="U8XN_XWJw1uIWbOrhST0-36">
          <mxGeometry width="30" height="45" as="geometry">
            <mxRectangle width="30" height="45" as="alternateBounds" />
          </mxGeometry>
        </mxCell>
        <mxCell id="U8XN_XWJw1uIWbOrhST0-38" value="Service_ID: NVARCHAR(40)" style="shape=partialRectangle;connectable=0;fillColor=none;top=0;left=0;bottom=0;right=0;align=left;spacingLeft=6;fontStyle=5;overflow=hidden;whiteSpace=wrap;html=1;" vertex="1" parent="U8XN_XWJw1uIWbOrhST0-36">
          <mxGeometry x="30" width="202" height="45" as="geometry">
            <mxRectangle width="202" height="45" as="alternateBounds" />
          </mxGeometry>
        </mxCell>
        <mxCell id="U8XN_XWJw1uIWbOrhST0-42" value="" style="shape=tableRow;horizontal=0;startSize=0;swimlaneHead=0;swimlaneBody=0;fillColor=none;collapsible=0;dropTarget=0;points=[[0,0.5],[1,0.5]];portConstraint=eastwest;top=0;left=0;right=0;bottom=0;" vertex="1" parent="U8XN_XWJw1uIWbOrhST0-35">
          <mxGeometry y="76" width="232" height="30" as="geometry" />
        </mxCell>
        <mxCell id="U8XN_XWJw1uIWbOrhST0-43" value="" style="shape=partialRectangle;connectable=0;fillColor=none;top=0;left=0;bottom=0;right=0;editable=1;overflow=hidden;whiteSpace=wrap;html=1;fontStyle=1" vertex="1" parent="U8XN_XWJw1uIWbOrhST0-42">
          <mxGeometry width="30" height="30" as="geometry">
            <mxRectangle width="30" height="30" as="alternateBounds" />
          </mxGeometry>
        </mxCell>
        <mxCell id="U8XN_XWJw1uIWbOrhST0-44" value="ServiceName: VARCHAR(40)" style="shape=partialRectangle;connectable=0;fillColor=none;top=0;left=0;bottom=0;right=0;align=left;spacingLeft=6;overflow=hidden;whiteSpace=wrap;html=1;fontStyle=1" vertex="1" parent="U8XN_XWJw1uIWbOrhST0-42">
          <mxGeometry x="30" width="202" height="30" as="geometry">
            <mxRectangle width="202" height="30" as="alternateBounds" />
          </mxGeometry>
        </mxCell>
        <mxCell id="U8XN_XWJw1uIWbOrhST0-284" value="" style="shape=tableRow;horizontal=0;startSize=0;swimlaneHead=0;swimlaneBody=0;fillColor=none;collapsible=0;dropTarget=0;points=[[0,0.5],[1,0.5]];portConstraint=eastwest;top=0;left=0;right=0;bottom=0;" vertex="1" parent="U8XN_XWJw1uIWbOrhST0-35">
          <mxGeometry y="106" width="232" height="30" as="geometry" />
        </mxCell>
        <mxCell id="U8XN_XWJw1uIWbOrhST0-285" value="" style="shape=partialRectangle;connectable=0;fillColor=none;top=0;left=0;bottom=0;right=0;editable=1;overflow=hidden;whiteSpace=wrap;html=1;fontStyle=1" vertex="1" parent="U8XN_XWJw1uIWbOrhST0-284">
          <mxGeometry width="30" height="30" as="geometry">
            <mxRectangle width="30" height="30" as="alternateBounds" />
          </mxGeometry>
        </mxCell>
        <mxCell id="U8XN_XWJw1uIWbOrhST0-286" value="ServiceType: VARCHAR(20)" style="shape=partialRectangle;connectable=0;fillColor=none;top=0;left=0;bottom=0;right=0;align=left;spacingLeft=6;overflow=hidden;whiteSpace=wrap;html=1;fontStyle=1" vertex="1" parent="U8XN_XWJw1uIWbOrhST0-284">
          <mxGeometry x="30" width="202" height="30" as="geometry">
            <mxRectangle width="202" height="30" as="alternateBounds" />
          </mxGeometry>
        </mxCell>
        <mxCell id="U8XN_XWJw1uIWbOrhST0-300" value="" style="shape=tableRow;horizontal=0;startSize=0;swimlaneHead=0;swimlaneBody=0;fillColor=none;collapsible=0;dropTarget=0;points=[[0,0.5],[1,0.5]];portConstraint=eastwest;top=0;left=0;right=0;bottom=0;" vertex="1" parent="U8XN_XWJw1uIWbOrhST0-35">
          <mxGeometry y="136" width="232" height="30" as="geometry" />
        </mxCell>
        <mxCell id="U8XN_XWJw1uIWbOrhST0-301" value="" style="shape=partialRectangle;connectable=0;fillColor=none;top=0;left=0;bottom=0;right=0;editable=1;overflow=hidden;whiteSpace=wrap;html=1;fontStyle=1" vertex="1" parent="U8XN_XWJw1uIWbOrhST0-300">
          <mxGeometry width="30" height="30" as="geometry">
            <mxRectangle width="30" height="30" as="alternateBounds" />
          </mxGeometry>
        </mxCell>
        <mxCell id="U8XN_XWJw1uIWbOrhST0-302" value="ServicePrice: VARCHAR(20)" style="shape=partialRectangle;connectable=0;fillColor=none;top=0;left=0;bottom=0;right=0;align=left;spacingLeft=6;overflow=hidden;whiteSpace=wrap;html=1;fontStyle=1" vertex="1" parent="U8XN_XWJw1uIWbOrhST0-300">
          <mxGeometry x="30" width="202" height="30" as="geometry">
            <mxRectangle width="202" height="30" as="alternateBounds" />
          </mxGeometry>
        </mxCell>
        <mxCell id="U8XN_XWJw1uIWbOrhST0-45" value="Transaction" style="shape=table;startSize=30;container=1;collapsible=1;childLayout=tableLayout;fixedRows=1;rowLines=0;fontStyle=1;align=center;resizeLast=1;html=1;strokeWidth=1;swimlaneFillColor=none;fillColor=#dae8fc;gradientColor=#7ea6e0;strokeColor=#6c8ebf;rounded=1;" vertex="1" parent="1">
          <mxGeometry x="180" y="23.75" width="260" height="242" as="geometry" />
        </mxCell>
        <mxCell id="U8XN_XWJw1uIWbOrhST0-46" value="" style="shape=tableRow;horizontal=0;startSize=0;swimlaneHead=0;swimlaneBody=0;fillColor=none;collapsible=0;dropTarget=0;points=[[0,0.5],[1,0.5]];portConstraint=eastwest;top=0;left=0;right=0;bottom=1;" vertex="1" parent="U8XN_XWJw1uIWbOrhST0-45">
          <mxGeometry y="30" width="260" height="20" as="geometry" />
        </mxCell>
        <mxCell id="U8XN_XWJw1uIWbOrhST0-47" value="PK" style="shape=partialRectangle;connectable=0;fillColor=none;top=0;left=0;bottom=0;right=0;fontStyle=1;overflow=hidden;whiteSpace=wrap;html=1;" vertex="1" parent="U8XN_XWJw1uIWbOrhST0-46">
          <mxGeometry width="23.54998779296875" height="20" as="geometry">
            <mxRectangle width="23.54998779296875" height="20" as="alternateBounds" />
          </mxGeometry>
        </mxCell>
        <mxCell id="U8XN_XWJw1uIWbOrhST0-48" value="Transaction_ID: NVARCHAR(40)" style="shape=partialRectangle;connectable=0;fillColor=none;top=0;left=0;bottom=0;right=0;align=left;spacingLeft=6;fontStyle=5;overflow=hidden;whiteSpace=wrap;html=1;" vertex="1" parent="U8XN_XWJw1uIWbOrhST0-46">
          <mxGeometry x="23.54998779296875" width="236.45001220703125" height="20" as="geometry">
            <mxRectangle width="236.45001220703125" height="20" as="alternateBounds" />
          </mxGeometry>
        </mxCell>
        <mxCell id="U8XN_XWJw1uIWbOrhST0-49" value="" style="shape=tableRow;horizontal=0;startSize=0;swimlaneHead=0;swimlaneBody=0;fillColor=none;collapsible=0;dropTarget=0;points=[[0,0.5],[1,0.5]];portConstraint=eastwest;top=0;left=0;right=0;bottom=0;" vertex="1" parent="U8XN_XWJw1uIWbOrhST0-45">
          <mxGeometry y="50" width="260" height="20" as="geometry" />
        </mxCell>
        <mxCell id="U8XN_XWJw1uIWbOrhST0-50" value="FK" style="shape=partialRectangle;connectable=0;fillColor=none;top=0;left=0;bottom=0;right=0;editable=1;overflow=hidden;whiteSpace=wrap;html=1;fontStyle=1" vertex="1" parent="U8XN_XWJw1uIWbOrhST0-49">
          <mxGeometry width="23.54998779296875" height="20" as="geometry">
            <mxRectangle width="23.54998779296875" height="20" as="alternateBounds" />
          </mxGeometry>
        </mxCell>
        <mxCell id="U8XN_XWJw1uIWbOrhST0-51" value="Customer_ID: NVARCHAR(40)" style="shape=partialRectangle;connectable=0;fillColor=none;top=0;left=0;bottom=0;right=0;align=left;spacingLeft=6;overflow=hidden;whiteSpace=wrap;html=1;fontStyle=1" vertex="1" parent="U8XN_XWJw1uIWbOrhST0-49">
          <mxGeometry x="23.54998779296875" width="236.45001220703125" height="20" as="geometry">
            <mxRectangle width="236.45001220703125" height="20" as="alternateBounds" />
          </mxGeometry>
        </mxCell>
        <mxCell id="U8XN_XWJw1uIWbOrhST0-206" value="" style="shape=tableRow;horizontal=0;startSize=0;swimlaneHead=0;swimlaneBody=0;fillColor=none;collapsible=0;dropTarget=0;points=[[0,0.5],[1,0.5]];portConstraint=eastwest;top=0;left=0;right=0;bottom=0;" vertex="1" parent="U8XN_XWJw1uIWbOrhST0-45">
          <mxGeometry y="70" width="260" height="26" as="geometry" />
        </mxCell>
        <mxCell id="U8XN_XWJw1uIWbOrhST0-207" value="FK" style="shape=partialRectangle;connectable=0;fillColor=none;top=0;left=0;bottom=0;right=0;editable=1;overflow=hidden;whiteSpace=wrap;html=1;fontStyle=1" vertex="1" parent="U8XN_XWJw1uIWbOrhST0-206">
          <mxGeometry width="23.54998779296875" height="26" as="geometry">
            <mxRectangle width="23.54998779296875" height="26" as="alternateBounds" />
          </mxGeometry>
        </mxCell>
        <mxCell id="U8XN_XWJw1uIWbOrhST0-208" value="Service_ID: NVARCHAR(40)" style="shape=partialRectangle;connectable=0;fillColor=none;top=0;left=0;bottom=0;right=0;align=left;spacingLeft=6;overflow=hidden;whiteSpace=wrap;html=1;fontStyle=1" vertex="1" parent="U8XN_XWJw1uIWbOrhST0-206">
          <mxGeometry x="23.54998779296875" width="236.45001220703125" height="26" as="geometry">
            <mxRectangle width="236.45001220703125" height="26" as="alternateBounds" />
          </mxGeometry>
        </mxCell>
        <mxCell id="U8XN_XWJw1uIWbOrhST0-209" value="" style="shape=tableRow;horizontal=0;startSize=0;swimlaneHead=0;swimlaneBody=0;fillColor=none;collapsible=0;dropTarget=0;points=[[0,0.5],[1,0.5]];portConstraint=eastwest;top=0;left=0;right=0;bottom=0;" vertex="1" parent="U8XN_XWJw1uIWbOrhST0-45">
          <mxGeometry y="96" width="260" height="30" as="geometry" />
        </mxCell>
        <mxCell id="U8XN_XWJw1uIWbOrhST0-210" value="FK" style="shape=partialRectangle;connectable=0;fillColor=none;top=0;left=0;bottom=0;right=0;editable=1;overflow=hidden;whiteSpace=wrap;html=1;fontStyle=1" vertex="1" parent="U8XN_XWJw1uIWbOrhST0-209">
          <mxGeometry width="23.54998779296875" height="30" as="geometry">
            <mxRectangle width="23.54998779296875" height="30" as="alternateBounds" />
          </mxGeometry>
        </mxCell>
        <mxCell id="U8XN_XWJw1uIWbOrhST0-211" value="ServiceType_ID: NVARCHAR(40)" style="shape=partialRectangle;connectable=0;fillColor=none;top=0;left=0;bottom=0;right=0;align=left;spacingLeft=6;overflow=hidden;whiteSpace=wrap;html=1;fontStyle=1" vertex="1" parent="U8XN_XWJw1uIWbOrhST0-209">
          <mxGeometry x="23.54998779296875" width="236.45001220703125" height="30" as="geometry">
            <mxRectangle width="236.45001220703125" height="30" as="alternateBounds" />
          </mxGeometry>
        </mxCell>
        <mxCell id="U8XN_XWJw1uIWbOrhST0-215" value="" style="shape=tableRow;horizontal=0;startSize=0;swimlaneHead=0;swimlaneBody=0;fillColor=none;collapsible=0;dropTarget=0;points=[[0,0.5],[1,0.5]];portConstraint=eastwest;top=0;left=0;right=0;bottom=0;" vertex="1" parent="U8XN_XWJw1uIWbOrhST0-45">
          <mxGeometry y="126" width="260" height="24" as="geometry" />
        </mxCell>
        <mxCell id="U8XN_XWJw1uIWbOrhST0-216" value="FK" style="shape=partialRectangle;connectable=0;fillColor=none;top=0;left=0;bottom=0;right=0;editable=1;overflow=hidden;whiteSpace=wrap;html=1;fontStyle=1" vertex="1" parent="U8XN_XWJw1uIWbOrhST0-215">
          <mxGeometry width="23.54998779296875" height="24" as="geometry">
            <mxRectangle width="23.54998779296875" height="24" as="alternateBounds" />
          </mxGeometry>
        </mxCell>
        <mxCell id="U8XN_XWJw1uIWbOrhST0-217" value="ServiceProvider_ID: NVARCHAR(40)" style="shape=partialRectangle;connectable=0;fillColor=none;top=0;left=0;bottom=0;right=0;align=left;spacingLeft=6;overflow=hidden;whiteSpace=wrap;html=1;fontStyle=1" vertex="1" parent="U8XN_XWJw1uIWbOrhST0-215">
          <mxGeometry x="23.54998779296875" width="236.45001220703125" height="24" as="geometry">
            <mxRectangle width="236.45001220703125" height="24" as="alternateBounds" />
          </mxGeometry>
        </mxCell>
        <mxCell id="U8XN_XWJw1uIWbOrhST0-221" value="" style="shape=tableRow;horizontal=0;startSize=0;swimlaneHead=0;swimlaneBody=0;fillColor=none;collapsible=0;dropTarget=0;points=[[0,0.5],[1,0.5]];portConstraint=eastwest;top=0;left=0;right=0;bottom=0;" vertex="1" parent="U8XN_XWJw1uIWbOrhST0-45">
          <mxGeometry y="150" width="260" height="20" as="geometry" />
        </mxCell>
        <mxCell id="U8XN_XWJw1uIWbOrhST0-222" value="" style="shape=partialRectangle;connectable=0;fillColor=none;top=0;left=0;bottom=0;right=0;editable=1;overflow=hidden;whiteSpace=wrap;html=1;fontStyle=1" vertex="1" parent="U8XN_XWJw1uIWbOrhST0-221">
          <mxGeometry width="23.54998779296875" height="20" as="geometry">
            <mxRectangle width="23.54998779296875" height="20" as="alternateBounds" />
          </mxGeometry>
        </mxCell>
        <mxCell id="U8XN_XWJw1uIWbOrhST0-223" value="TransactionAmount: INTEGER" style="shape=partialRectangle;connectable=0;fillColor=none;top=0;left=0;bottom=0;right=0;align=left;spacingLeft=6;overflow=hidden;whiteSpace=wrap;html=1;fontStyle=1" vertex="1" parent="U8XN_XWJw1uIWbOrhST0-221">
          <mxGeometry x="23.54998779296875" width="236.45001220703125" height="20" as="geometry">
            <mxRectangle width="236.45001220703125" height="20" as="alternateBounds" />
          </mxGeometry>
        </mxCell>
        <mxCell id="U8XN_XWJw1uIWbOrhST0-281" value="" style="shape=tableRow;horizontal=0;startSize=0;swimlaneHead=0;swimlaneBody=0;fillColor=none;collapsible=0;dropTarget=0;points=[[0,0.5],[1,0.5]];portConstraint=eastwest;top=0;left=0;right=0;bottom=0;" vertex="1" parent="U8XN_XWJw1uIWbOrhST0-45">
          <mxGeometry y="170" width="260" height="36" as="geometry" />
        </mxCell>
        <mxCell id="U8XN_XWJw1uIWbOrhST0-282" value="" style="shape=partialRectangle;connectable=0;fillColor=none;top=0;left=0;bottom=0;right=0;editable=1;overflow=hidden;whiteSpace=wrap;html=1;fontStyle=1" vertex="1" parent="U8XN_XWJw1uIWbOrhST0-281">
          <mxGeometry width="23.54998779296875" height="36" as="geometry">
            <mxRectangle width="23.54998779296875" height="36" as="alternateBounds" />
          </mxGeometry>
        </mxCell>
        <mxCell id="U8XN_XWJw1uIWbOrhST0-283" value="TransactionDate: DATETIME" style="shape=partialRectangle;connectable=0;fillColor=none;top=0;left=0;bottom=0;right=0;align=left;spacingLeft=6;overflow=hidden;whiteSpace=wrap;html=1;fontStyle=1" vertex="1" parent="U8XN_XWJw1uIWbOrhST0-281">
          <mxGeometry x="23.54998779296875" width="236.45001220703125" height="36" as="geometry">
            <mxRectangle width="236.45001220703125" height="36" as="alternateBounds" />
          </mxGeometry>
        </mxCell>
        <mxCell id="U8XN_XWJw1uIWbOrhST0-287" value="" style="shape=tableRow;horizontal=0;startSize=0;swimlaneHead=0;swimlaneBody=0;fillColor=none;collapsible=0;dropTarget=0;points=[[0,0.5],[1,0.5]];portConstraint=eastwest;top=0;left=0;right=0;bottom=0;" vertex="1" parent="U8XN_XWJw1uIWbOrhST0-45">
          <mxGeometry y="206" width="260" height="36" as="geometry" />
        </mxCell>
        <mxCell id="U8XN_XWJw1uIWbOrhST0-288" value="" style="shape=partialRectangle;connectable=0;fillColor=none;top=0;left=0;bottom=0;right=0;editable=1;overflow=hidden;whiteSpace=wrap;html=1;fontStyle=1" vertex="1" parent="U8XN_XWJw1uIWbOrhST0-287">
          <mxGeometry width="23.54998779296875" height="36" as="geometry">
            <mxRectangle width="23.54998779296875" height="36" as="alternateBounds" />
          </mxGeometry>
        </mxCell>
        <mxCell id="U8XN_XWJw1uIWbOrhST0-289" value="TransactionStatus: VARCHAR(20)" style="shape=partialRectangle;connectable=0;fillColor=none;top=0;left=0;bottom=0;right=0;align=left;spacingLeft=6;overflow=hidden;whiteSpace=wrap;html=1;fontStyle=1" vertex="1" parent="U8XN_XWJw1uIWbOrhST0-287">
          <mxGeometry x="23.54998779296875" width="236.45001220703125" height="36" as="geometry">
            <mxRectangle width="236.45001220703125" height="36" as="alternateBounds" />
          </mxGeometry>
        </mxCell>
        <mxCell id="U8XN_XWJw1uIWbOrhST0-58" value="" style="edgeStyle=entityRelationEdgeStyle;fontSize=12;html=1;endArrow=ERzeroToMany;endFill=1;rounded=0;startArrow=ERmandOne;startFill=0;exitX=1;exitY=0.5;exitDx=0;exitDy=0;entryX=0;entryY=0.5;entryDx=0;entryDy=0;" edge="1" parent="1" source="U8XN_XWJw1uIWbOrhST0-2" target="U8XN_XWJw1uIWbOrhST0-49">
          <mxGeometry width="100" height="100" relative="1" as="geometry">
            <mxPoint x="235" y="210" as="sourcePoint" />
            <mxPoint x="335" y="110" as="targetPoint" />
          </mxGeometry>
        </mxCell>
        <mxCell id="U8XN_XWJw1uIWbOrhST0-59" value="TransactionHistory" style="shape=table;startSize=60;container=1;collapsible=1;childLayout=tableLayout;fixedRows=1;rowLines=0;fontStyle=1;align=center;resizeLast=1;html=1;whiteSpace=wrap;rounded=1;fillColor=#d0cee2;strokeColor=#56517e;" vertex="1" parent="1">
          <mxGeometry x="65.00000000000003" y="320" width="221.15008544921875" height="240.699951171875" as="geometry" />
        </mxCell>
        <mxCell id="U8XN_XWJw1uIWbOrhST0-60" value="" style="shape=tableRow;horizontal=0;startSize=0;swimlaneHead=0;swimlaneBody=0;fillColor=none;collapsible=0;dropTarget=0;points=[[0,0.5],[1,0.5]];portConstraint=eastwest;top=0;left=0;right=0;bottom=1;html=1;" vertex="1" parent="U8XN_XWJw1uIWbOrhST0-59">
          <mxGeometry y="60" width="221.15008544921875" height="20" as="geometry" />
        </mxCell>
        <mxCell id="U8XN_XWJw1uIWbOrhST0-61" value="FK" style="shape=partialRectangle;connectable=0;fillColor=none;top=0;left=0;bottom=0;right=0;fontStyle=1;overflow=hidden;html=1;whiteSpace=wrap;" vertex="1" parent="U8XN_XWJw1uIWbOrhST0-60">
          <mxGeometry width="44.949951171875" height="20" as="geometry">
            <mxRectangle width="44.949951171875" height="20" as="alternateBounds" />
          </mxGeometry>
        </mxCell>
        <mxCell id="U8XN_XWJw1uIWbOrhST0-62" value="Transaction_ID" style="shape=partialRectangle;connectable=0;fillColor=none;top=0;left=0;bottom=0;right=0;align=left;spacingLeft=6;fontStyle=5;overflow=hidden;html=1;whiteSpace=wrap;" vertex="1" parent="U8XN_XWJw1uIWbOrhST0-60">
          <mxGeometry x="44.949951171875" width="176.20013427734375" height="20" as="geometry">
            <mxRectangle width="176.20013427734375" height="20" as="alternateBounds" />
          </mxGeometry>
        </mxCell>
        <mxCell id="U8XN_XWJw1uIWbOrhST0-63" value="" style="shape=tableRow;horizontal=0;startSize=0;swimlaneHead=0;swimlaneBody=0;fillColor=none;collapsible=0;dropTarget=0;points=[[0,0.5],[1,0.5]];portConstraint=eastwest;top=0;left=0;right=0;bottom=0;html=1;" vertex="1" parent="U8XN_XWJw1uIWbOrhST0-59">
          <mxGeometry y="80" width="221.15008544921875" height="20" as="geometry" />
        </mxCell>
        <mxCell id="U8XN_XWJw1uIWbOrhST0-64" value="" style="shape=partialRectangle;connectable=0;fillColor=none;top=0;left=0;bottom=0;right=0;editable=1;overflow=hidden;html=1;whiteSpace=wrap;" vertex="1" parent="U8XN_XWJw1uIWbOrhST0-63">
          <mxGeometry width="44.949951171875" height="20" as="geometry">
            <mxRectangle width="44.949951171875" height="20" as="alternateBounds" />
          </mxGeometry>
        </mxCell>
        <mxCell id="U8XN_XWJw1uIWbOrhST0-65" value="Date" style="shape=partialRectangle;connectable=0;fillColor=none;top=0;left=0;bottom=0;right=0;align=left;spacingLeft=6;overflow=hidden;html=1;whiteSpace=wrap;fontStyle=1" vertex="1" parent="U8XN_XWJw1uIWbOrhST0-63">
          <mxGeometry x="44.949951171875" width="176.20013427734375" height="20" as="geometry">
            <mxRectangle width="176.20013427734375" height="20" as="alternateBounds" />
          </mxGeometry>
        </mxCell>
        <mxCell id="U8XN_XWJw1uIWbOrhST0-66" value="" style="shape=tableRow;horizontal=0;startSize=0;swimlaneHead=0;swimlaneBody=0;fillColor=none;collapsible=0;dropTarget=0;points=[[0,0.5],[1,0.5]];portConstraint=eastwest;top=0;left=0;right=0;bottom=0;html=1;" vertex="1" parent="U8XN_XWJw1uIWbOrhST0-59">
          <mxGeometry y="100" width="221.15008544921875" height="20" as="geometry" />
        </mxCell>
        <mxCell id="U8XN_XWJw1uIWbOrhST0-67" value="" style="shape=partialRectangle;connectable=0;fillColor=none;top=0;left=0;bottom=0;right=0;editable=1;overflow=hidden;html=1;whiteSpace=wrap;" vertex="1" parent="U8XN_XWJw1uIWbOrhST0-66">
          <mxGeometry width="44.949951171875" height="20" as="geometry">
            <mxRectangle width="44.949951171875" height="20" as="alternateBounds" />
          </mxGeometry>
        </mxCell>
        <mxCell id="U8XN_XWJw1uIWbOrhST0-68" value="Time" style="shape=partialRectangle;connectable=0;fillColor=none;top=0;left=0;bottom=0;right=0;align=left;spacingLeft=6;overflow=hidden;html=1;whiteSpace=wrap;fontStyle=1" vertex="1" parent="U8XN_XWJw1uIWbOrhST0-66">
          <mxGeometry x="44.949951171875" width="176.20013427734375" height="20" as="geometry">
            <mxRectangle width="176.20013427734375" height="20" as="alternateBounds" />
          </mxGeometry>
        </mxCell>
        <mxCell id="U8XN_XWJw1uIWbOrhST0-69" value="" style="shape=tableRow;horizontal=0;startSize=0;swimlaneHead=0;swimlaneBody=0;fillColor=none;collapsible=0;dropTarget=0;points=[[0,0.5],[1,0.5]];portConstraint=eastwest;top=0;left=0;right=0;bottom=0;html=1;" vertex="1" parent="U8XN_XWJw1uIWbOrhST0-59">
          <mxGeometry y="120" width="221.15008544921875" height="20" as="geometry" />
        </mxCell>
        <mxCell id="U8XN_XWJw1uIWbOrhST0-70" value="" style="shape=partialRectangle;connectable=0;fillColor=none;top=0;left=0;bottom=0;right=0;editable=1;overflow=hidden;html=1;whiteSpace=wrap;" vertex="1" parent="U8XN_XWJw1uIWbOrhST0-69">
          <mxGeometry width="44.949951171875" height="20" as="geometry">
            <mxRectangle width="44.949951171875" height="20" as="alternateBounds" />
          </mxGeometry>
        </mxCell>
        <mxCell id="U8XN_XWJw1uIWbOrhST0-71" value="TransactionStatus:INTEGER" style="shape=partialRectangle;connectable=0;fillColor=none;top=0;left=0;bottom=0;right=0;align=left;spacingLeft=6;overflow=hidden;html=1;whiteSpace=wrap;fontStyle=1" vertex="1" parent="U8XN_XWJw1uIWbOrhST0-69">
          <mxGeometry x="44.949951171875" width="176.20013427734375" height="20" as="geometry">
            <mxRectangle width="176.20013427734375" height="20" as="alternateBounds" />
          </mxGeometry>
        </mxCell>
        <mxCell id="U8XN_XWJw1uIWbOrhST0-72" value="" style="shape=tableRow;horizontal=0;startSize=0;swimlaneHead=0;swimlaneBody=0;fillColor=none;collapsible=0;dropTarget=0;points=[[0,0.5],[1,0.5]];portConstraint=eastwest;top=0;left=0;right=0;bottom=0;html=1;fontStyle=1" vertex="1" parent="U8XN_XWJw1uIWbOrhST0-59">
          <mxGeometry y="140" width="221.15008544921875" height="20" as="geometry" />
        </mxCell>
        <mxCell id="U8XN_XWJw1uIWbOrhST0-73" value="&lt;b&gt;PK, FK&lt;/b&gt;" style="shape=partialRectangle;connectable=0;fillColor=none;top=0;left=0;bottom=0;right=0;editable=1;overflow=hidden;html=1;whiteSpace=wrap;" vertex="1" parent="U8XN_XWJw1uIWbOrhST0-72">
          <mxGeometry width="44.949951171875" height="20" as="geometry">
            <mxRectangle width="44.949951171875" height="20" as="alternateBounds" />
          </mxGeometry>
        </mxCell>
        <mxCell id="U8XN_XWJw1uIWbOrhST0-74" value="ReferenceNumber" style="shape=partialRectangle;connectable=0;fillColor=none;top=0;left=0;bottom=0;right=0;align=left;spacingLeft=6;overflow=hidden;html=1;whiteSpace=wrap;fontStyle=1" vertex="1" parent="U8XN_XWJw1uIWbOrhST0-72">
          <mxGeometry x="44.949951171875" width="176.20013427734375" height="20" as="geometry">
            <mxRectangle width="176.20013427734375" height="20" as="alternateBounds" />
          </mxGeometry>
        </mxCell>
        <mxCell id="U8XN_XWJw1uIWbOrhST0-75" value="" style="shape=tableRow;horizontal=0;startSize=0;swimlaneHead=0;swimlaneBody=0;fillColor=none;collapsible=0;dropTarget=0;points=[[0,0.5],[1,0.5]];portConstraint=eastwest;top=0;left=0;right=0;bottom=0;html=1;fontStyle=1" vertex="1" parent="U8XN_XWJw1uIWbOrhST0-59">
          <mxGeometry y="160" width="221.15008544921875" height="20" as="geometry" />
        </mxCell>
        <mxCell id="U8XN_XWJw1uIWbOrhST0-76" value="" style="shape=partialRectangle;connectable=0;fillColor=none;top=0;left=0;bottom=0;right=0;editable=1;overflow=hidden;html=1;whiteSpace=wrap;" vertex="1" parent="U8XN_XWJw1uIWbOrhST0-75">
          <mxGeometry width="44.949951171875" height="20" as="geometry">
            <mxRectangle width="44.949951171875" height="20" as="alternateBounds" />
          </mxGeometry>
        </mxCell>
        <mxCell id="U8XN_XWJw1uIWbOrhST0-77" value="TransactionType" style="shape=partialRectangle;connectable=0;fillColor=none;top=0;left=0;bottom=0;right=0;align=left;spacingLeft=6;overflow=hidden;html=1;whiteSpace=wrap;fontStyle=1" vertex="1" parent="U8XN_XWJw1uIWbOrhST0-75">
          <mxGeometry x="44.949951171875" width="176.20013427734375" height="20" as="geometry">
            <mxRectangle width="176.20013427734375" height="20" as="alternateBounds" />
          </mxGeometry>
        </mxCell>
        <mxCell id="U8XN_XWJw1uIWbOrhST0-78" value="" style="shape=tableRow;horizontal=0;startSize=0;swimlaneHead=0;swimlaneBody=0;fillColor=none;collapsible=0;dropTarget=0;points=[[0,0.5],[1,0.5]];portConstraint=eastwest;top=0;left=0;right=0;bottom=0;html=1;fontStyle=1" vertex="1" parent="U8XN_XWJw1uIWbOrhST0-59">
          <mxGeometry y="180" width="221.15008544921875" height="20" as="geometry" />
        </mxCell>
        <mxCell id="U8XN_XWJw1uIWbOrhST0-79" value="" style="shape=partialRectangle;connectable=0;fillColor=none;top=0;left=0;bottom=0;right=0;editable=1;overflow=hidden;html=1;whiteSpace=wrap;" vertex="1" parent="U8XN_XWJw1uIWbOrhST0-78">
          <mxGeometry width="44.949951171875" height="20" as="geometry">
            <mxRectangle width="44.949951171875" height="20" as="alternateBounds" />
          </mxGeometry>
        </mxCell>
        <mxCell id="U8XN_XWJw1uIWbOrhST0-80" value="RecipientAccount" style="shape=partialRectangle;connectable=0;fillColor=none;top=0;left=0;bottom=0;right=0;align=left;spacingLeft=6;overflow=hidden;html=1;whiteSpace=wrap;fontStyle=1" vertex="1" parent="U8XN_XWJw1uIWbOrhST0-78">
          <mxGeometry x="44.949951171875" width="176.20013427734375" height="20" as="geometry">
            <mxRectangle width="176.20013427734375" height="20" as="alternateBounds" />
          </mxGeometry>
        </mxCell>
        <mxCell id="U8XN_XWJw1uIWbOrhST0-81" value="" style="shape=tableRow;horizontal=0;startSize=0;swimlaneHead=0;swimlaneBody=0;fillColor=none;collapsible=0;dropTarget=0;points=[[0,0.5],[1,0.5]];portConstraint=eastwest;top=0;left=0;right=0;bottom=0;html=1;fontStyle=1" vertex="1" parent="U8XN_XWJw1uIWbOrhST0-59">
          <mxGeometry y="200" width="221.15008544921875" height="20" as="geometry" />
        </mxCell>
        <mxCell id="U8XN_XWJw1uIWbOrhST0-82" value="" style="shape=partialRectangle;connectable=0;fillColor=none;top=0;left=0;bottom=0;right=0;editable=1;overflow=hidden;html=1;whiteSpace=wrap;" vertex="1" parent="U8XN_XWJw1uIWbOrhST0-81">
          <mxGeometry width="44.949951171875" height="20" as="geometry">
            <mxRectangle width="44.949951171875" height="20" as="alternateBounds" />
          </mxGeometry>
        </mxCell>
        <mxCell id="U8XN_XWJw1uIWbOrhST0-83" value="ServiceProvider" style="shape=partialRectangle;connectable=0;fillColor=none;top=0;left=0;bottom=0;right=0;align=left;spacingLeft=6;overflow=hidden;html=1;whiteSpace=wrap;fontStyle=1" vertex="1" parent="U8XN_XWJw1uIWbOrhST0-81">
          <mxGeometry x="44.949951171875" width="176.20013427734375" height="20" as="geometry">
            <mxRectangle width="176.20013427734375" height="20" as="alternateBounds" />
          </mxGeometry>
        </mxCell>
        <mxCell id="U8XN_XWJw1uIWbOrhST0-84" value="" style="shape=tableRow;horizontal=0;startSize=0;swimlaneHead=0;swimlaneBody=0;fillColor=none;collapsible=0;dropTarget=0;points=[[0,0.5],[1,0.5]];portConstraint=eastwest;top=0;left=0;right=0;bottom=0;html=1;fontStyle=1" vertex="1" parent="U8XN_XWJw1uIWbOrhST0-59">
          <mxGeometry y="220" width="221.15008544921875" height="20" as="geometry" />
        </mxCell>
        <mxCell id="U8XN_XWJw1uIWbOrhST0-85" value="" style="shape=partialRectangle;connectable=0;fillColor=none;top=0;left=0;bottom=0;right=0;editable=1;overflow=hidden;html=1;whiteSpace=wrap;" vertex="1" parent="U8XN_XWJw1uIWbOrhST0-84">
          <mxGeometry width="44.949951171875" height="20" as="geometry">
            <mxRectangle width="44.949951171875" height="20" as="alternateBounds" />
          </mxGeometry>
        </mxCell>
        <mxCell id="U8XN_XWJw1uIWbOrhST0-86" value="ServiceType" style="shape=partialRectangle;connectable=0;fillColor=none;top=0;left=0;bottom=0;right=0;align=left;spacingLeft=6;overflow=hidden;html=1;whiteSpace=wrap;fontStyle=1" vertex="1" parent="U8XN_XWJw1uIWbOrhST0-84">
          <mxGeometry x="44.949951171875" width="176.20013427734375" height="20" as="geometry">
            <mxRectangle width="176.20013427734375" height="20" as="alternateBounds" />
          </mxGeometry>
        </mxCell>
        <mxCell id="U8XN_XWJw1uIWbOrhST0-290" value="ServicesProvider" style="shape=table;startSize=31;container=1;collapsible=1;childLayout=tableLayout;fixedRows=1;rowLines=0;fontStyle=1;align=center;resizeLast=1;html=1;fillColor=#b1ddf0;strokeColor=#10739e;rounded=1;" vertex="1" parent="1">
          <mxGeometry x="510" y="220" width="250" height="152.3001708984375" as="geometry" />
        </mxCell>
        <mxCell id="U8XN_XWJw1uIWbOrhST0-291" value="" style="shape=tableRow;horizontal=0;startSize=0;swimlaneHead=0;swimlaneBody=0;fillColor=none;collapsible=0;dropTarget=0;points=[[0,0.5],[1,0.5]];portConstraint=eastwest;top=0;left=0;right=0;bottom=1;" vertex="1" parent="U8XN_XWJw1uIWbOrhST0-290">
          <mxGeometry y="31" width="250" height="45" as="geometry" />
        </mxCell>
        <mxCell id="U8XN_XWJw1uIWbOrhST0-292" value="PK" style="shape=partialRectangle;connectable=0;fillColor=none;top=0;left=0;bottom=0;right=0;fontStyle=1;overflow=hidden;whiteSpace=wrap;html=1;" vertex="1" parent="U8XN_XWJw1uIWbOrhST0-291">
          <mxGeometry width="30" height="45" as="geometry">
            <mxRectangle width="30" height="45" as="alternateBounds" />
          </mxGeometry>
        </mxCell>
        <mxCell id="U8XN_XWJw1uIWbOrhST0-293" value="ServiceProvider_ID: NVARCHAR(40)" style="shape=partialRectangle;connectable=0;fillColor=none;top=0;left=0;bottom=0;right=0;align=left;spacingLeft=6;fontStyle=5;overflow=hidden;whiteSpace=wrap;html=1;" vertex="1" parent="U8XN_XWJw1uIWbOrhST0-291">
          <mxGeometry x="30" width="220" height="45" as="geometry">
            <mxRectangle width="220" height="45" as="alternateBounds" />
          </mxGeometry>
        </mxCell>
        <mxCell id="U8XN_XWJw1uIWbOrhST0-294" value="" style="shape=tableRow;horizontal=0;startSize=0;swimlaneHead=0;swimlaneBody=0;fillColor=none;collapsible=0;dropTarget=0;points=[[0,0.5],[1,0.5]];portConstraint=eastwest;top=0;left=0;right=0;bottom=0;" vertex="1" parent="U8XN_XWJw1uIWbOrhST0-290">
          <mxGeometry y="76" width="250" height="30" as="geometry" />
        </mxCell>
        <mxCell id="U8XN_XWJw1uIWbOrhST0-295" value="" style="shape=partialRectangle;connectable=0;fillColor=none;top=0;left=0;bottom=0;right=0;editable=1;overflow=hidden;whiteSpace=wrap;html=1;fontStyle=1" vertex="1" parent="U8XN_XWJw1uIWbOrhST0-294">
          <mxGeometry width="30" height="30" as="geometry">
            <mxRectangle width="30" height="30" as="alternateBounds" />
          </mxGeometry>
        </mxCell>
        <mxCell id="U8XN_XWJw1uIWbOrhST0-296" value="ServiceName: VARCHAR(40)" style="shape=partialRectangle;connectable=0;fillColor=none;top=0;left=0;bottom=0;right=0;align=left;spacingLeft=6;overflow=hidden;whiteSpace=wrap;html=1;fontStyle=1" vertex="1" parent="U8XN_XWJw1uIWbOrhST0-294">
          <mxGeometry x="30" width="220" height="30" as="geometry">
            <mxRectangle width="220" height="30" as="alternateBounds" />
          </mxGeometry>
        </mxCell>
        <mxCell id="U8XN_XWJw1uIWbOrhST0-297" value="" style="shape=tableRow;horizontal=0;startSize=0;swimlaneHead=0;swimlaneBody=0;fillColor=none;collapsible=0;dropTarget=0;points=[[0,0.5],[1,0.5]];portConstraint=eastwest;top=0;left=0;right=0;bottom=0;" vertex="1" parent="U8XN_XWJw1uIWbOrhST0-290">
          <mxGeometry y="106" width="250" height="30" as="geometry" />
        </mxCell>
        <mxCell id="U8XN_XWJw1uIWbOrhST0-298" value="" style="shape=partialRectangle;connectable=0;fillColor=none;top=0;left=0;bottom=0;right=0;editable=1;overflow=hidden;whiteSpace=wrap;html=1;fontStyle=1" vertex="1" parent="U8XN_XWJw1uIWbOrhST0-297">
          <mxGeometry width="30" height="30" as="geometry">
            <mxRectangle width="30" height="30" as="alternateBounds" />
          </mxGeometry>
        </mxCell>
        <mxCell id="U8XN_XWJw1uIWbOrhST0-299" value="ServiceType: VARCHAR(20)" style="shape=partialRectangle;connectable=0;fillColor=none;top=0;left=0;bottom=0;right=0;align=left;spacingLeft=6;overflow=hidden;whiteSpace=wrap;html=1;fontStyle=1" vertex="1" parent="U8XN_XWJw1uIWbOrhST0-297">
          <mxGeometry x="30" width="220" height="30" as="geometry">
            <mxRectangle width="220" height="30" as="alternateBounds" />
          </mxGeometry>
        </mxCell>
      </root>
    </mxGraphModel>
  </diagram>
</mxfile>
